<svg xmlns="http://www.w3.org/2000/svg" width="80" height="80" viewBox="0 0 80 80" fill="none"><rect width="80" height="80" rx="40" fill="#F5FAFF"></rect><g clip-path="url(#clip0_104_43)"><path d="M10 51.0641L20.2 39.9281C20.2 39.9281 21.928 37.8041 27.184 38.0441H46.24C46.24 38.0441 51.004 37.9241 51.496 41.3441L59.308 33.6521C59.308 33.6521 61.756 31.4561 64.924 34.2641C64.924 34.2641 67.972 37.0721 64.312 40.8641L47.584 57.7001C47.584 57.7001 47.092 59.0441 44.404 58.8041L23.512 59.1761L12.58 70.0001" stroke="#1A4DBE" stroke-width="1.5" stroke-miterlimit="10"></path><path d="M33.172 47.32H48.688C48.688 47.32 52.348 46.468 51.496 41.332" stroke="#1A4DBE" stroke-width="1.5" stroke-miterlimit="10"></path><path d="M34.048 34.9481L46.78 22.2881" stroke="#1A4DBE" stroke-width="1.5" stroke-miterlimit="10" stroke-linecap="round" stroke-linejoin="round"></path><path d="M36.088 27.6521C37.3472 27.6521 38.368 26.4002 38.368 24.8561C38.368 23.3119 37.3472 22.0601 36.088 22.0601C34.8288 22.0601 33.808 23.3119 33.808 24.8561C33.808 26.4002 34.8288 27.6521 36.088 27.6521Z" stroke="#1A4DBE" stroke-width="1.5" stroke-miterlimit="10"></path><path d="M44.692 35.1521C45.9512 35.1521 46.972 33.9002 46.972 32.3561C46.972 30.8119 45.9512 29.5601 44.692 29.5601C43.4328 29.5601 42.412 30.8119 42.412 32.3561C42.412 33.9002 43.4328 35.1521 44.692 35.1521Z" stroke="#1A4DBE" stroke-width="1.5" stroke-miterlimit="10"></path><path d="M53.812 36.5801V25.1681H57.568L40.408 10.2881L23.308 25.0961H27.04V26.9201" stroke="#1A4DBE" stroke-width="1.5" stroke-miterlimit="10"></path><path d="M27.04 30.1719V31.7319" stroke="#1A4DBE" stroke-width="1.5" stroke-miterlimit="10"></path><path d="M27.04 34.8164V37.4684" stroke="#1A4DBE" stroke-width="1.5" stroke-miterlimit="10"></path><path d="M48.46 17.1881V13.4321H52.408V20.6921" stroke="#1A4DBE" stroke-width="1.5" stroke-miterlimit="10"></path></g><defs><clipPath id="clip0_104_43"><rect width="60" height="60" fill="white" transform="translate(10 10)"></rect></clipPath></defs></svg>